<svg width="211" height="44" viewBox="0 0 211 44" fill="none" xmlns="http://www.w3.org/2000/svg">
<path fill-rule="evenodd" clip-rule="evenodd" d="M78.8147 37.6347L79.7948 34.4437H80.7881L79.2814 38.6874H78.3508L76.8491 34.4437H77.8391L78.8147 37.6347ZM84.3621 36.8428H82.6504V37.9827H84.6593V38.6869H81.7581V34.4432H84.6532V35.1533H82.6504V36.162H84.3621V36.8428ZM87.3477 37.1352H86.6377V38.6869H85.746V34.4432H87.3544C87.8655 34.4432 88.2605 34.5548 88.5378 34.7781C88.8155 35.0019 88.9539 35.3173 88.9539 35.7263C88.9539 36.0155 88.89 36.2573 88.7622 36.4506C88.6344 36.6445 88.4416 36.7987 88.1816 36.913L89.1183 38.646V38.6869H88.1605L87.3477 37.1352ZM86.6377 36.425H87.3572C87.5811 36.425 87.755 36.369 87.8777 36.2579C88.0005 36.1467 88.0627 35.9921 88.0627 35.7965C88.0627 35.5967 88.0038 35.4404 87.8883 35.326C87.7727 35.2116 87.595 35.1539 87.3544 35.1539H86.6383V36.425H86.6377ZM91.1434 38.6869H90.2522V34.4432H91.1434V38.6869ZM95.1374 36.9501H93.4257V38.6869H92.534V34.4432H95.3518V35.1533H93.4257V36.2453H95.1374V36.9501ZM97.3802 38.6869H96.4891V34.4432H97.3802V38.6869ZM101.268 37.8155H99.7041L99.4064 38.6869H98.4586L100.069 34.4432H100.896L102.516 38.6869H101.568L101.268 37.8155ZM99.9447 37.1053H101.028L100.484 35.5155L99.9447 37.1053ZM103.483 38.6869V34.4432H104.999C105.525 34.4432 105.924 34.5417 106.195 34.7394C106.467 34.9366 106.603 35.2258 106.603 35.607C106.603 35.8151 106.548 35.9986 106.438 36.1571C106.329 36.3156 106.179 36.4316 105.984 36.5057C106.206 36.5601 106.38 36.6696 106.508 36.8346C106.636 36.9996 106.7 37.2017 106.7 37.4408C106.7 37.8487 106.567 38.157 106.303 38.3666C106.037 38.5763 105.658 38.6831 105.167 38.6869H103.483ZM104.375 36.8428V37.9827H105.139C105.349 37.9827 105.513 37.9337 105.631 37.8367C105.749 37.7392 105.808 37.6036 105.808 37.4315C105.808 37.0448 105.603 36.8488 105.193 36.8428H104.375ZM104.375 36.2219H105.035C105.485 36.2143 105.71 36.0389 105.71 35.6947C105.71 35.5024 105.653 35.3647 105.538 35.2797C105.425 35.1953 105.245 35.1533 104.999 35.1533H104.375V36.2219ZM108.825 37.9827H110.718V38.6869H107.933V34.4432H108.824V37.9827H108.825ZM114.397 36.8428H112.685V37.9827H114.694V38.6869H111.793V34.4432H114.688V35.1533H112.684V36.162H114.396V36.8428H114.397ZM120.695 37.2752C120.661 37.7321 120.49 38.0911 120.179 38.3536C119.87 38.615 119.461 38.7463 118.954 38.7463C118.399 38.7463 117.962 38.5633 117.643 38.1962C117.326 37.8302 117.166 37.3264 117.166 36.687V36.4272C117.166 36.0193 117.24 35.6593 117.387 35.3478C117.533 35.0373 117.743 34.7988 118.015 34.6327C118.287 34.4666 118.604 34.3827 118.965 34.3827C119.465 34.3827 119.867 34.5139 120.172 34.7754C120.477 35.0379 120.654 35.406 120.701 35.8804H119.809C119.788 35.6059 119.71 35.4071 119.576 35.2835C119.443 35.1604 119.239 35.0989 118.965 35.0989C118.667 35.0989 118.445 35.2035 118.298 35.412C118.15 35.6212 118.075 35.9452 118.071 36.3847V36.705C118.071 37.1636 118.141 37.4985 118.283 37.7109C118.425 37.9228 118.648 38.029 118.954 38.029C119.229 38.029 119.435 37.9674 119.571 37.8449C119.706 37.7212 119.784 37.5317 119.804 37.2741H120.695V37.2752ZM123.446 37.1352H122.736V38.6869H121.844V34.4432H123.453C123.964 34.4432 124.359 34.5548 124.636 34.7781C124.914 35.0019 125.052 35.3173 125.052 35.7263C125.052 36.0155 124.988 36.2573 124.86 36.4506C124.733 36.6445 124.54 36.7987 124.28 36.913L125.216 38.646V38.6869H124.259L123.446 37.1352ZM122.735 36.425H123.455C123.679 36.425 123.853 36.369 123.975 36.2579C124.098 36.1467 124.16 35.9921 124.16 35.7965C124.16 35.5967 124.101 35.4404 123.985 35.326C123.87 35.2116 123.692 35.1539 123.451 35.1539H122.735V36.425ZM128.897 36.8428H127.185V37.9827H129.194V38.6869H126.293V34.4432H129.188V35.1533H127.185V36.162H128.897V36.8428H128.897ZM130.281 38.6869V34.4432H131.612C131.993 34.4432 132.333 34.527 132.634 34.6948C132.934 34.863 133.168 35.1027 133.337 35.412C133.506 35.7225 133.59 36.0749 133.59 36.4686V36.6647C133.59 37.059 133.507 37.4097 133.341 37.7164C133.176 38.0235 132.943 38.2615 132.641 38.4304C132.34 38.5992 132 38.6847 131.622 38.6869H130.281ZM131.173 35.1539V37.9827H131.604C131.952 37.9827 132.219 37.871 132.404 37.6483C132.588 37.4244 132.682 37.1053 132.686 36.6903V36.4664C132.686 36.0356 132.594 35.7083 132.412 35.4867C132.231 35.265 131.964 35.1533 131.613 35.1533H131.173V35.1539ZM137.405 36.8428H135.693V37.9827H137.702V38.6869H134.801V34.4432H137.696V35.1533H135.693V36.162H137.405V36.8428H137.405ZM142.308 38.6869H141.416L139.681 35.8946V38.6869H138.789V34.4432H139.681L141.419 37.2414V34.4432H142.308V38.6869ZM146.823 35.1539H145.496V38.6869H144.605V35.1539H143.297V34.4437H146.823V35.1539ZM148.842 38.6869H147.951V34.4432H148.842V38.6869ZM152.73 37.8155H151.166L150.868 38.6869H149.92L151.53 34.4432H152.358L153.978 38.6869H153.029L152.73 37.8155ZM151.407 37.1053H152.489L151.945 35.5155L151.407 37.1053ZM155.838 37.9827H157.732V38.6869H154.946V34.4432H155.838V37.9827ZM161.052 37.5737C161.052 37.4086 160.992 37.2812 160.873 37.1924C160.755 37.1047 160.541 37.0111 160.231 36.913C159.922 36.8155 159.677 36.7181 159.497 36.6238C159.006 36.3635 158.76 36.0117 158.76 35.57C158.76 35.3412 158.826 35.1365 158.958 34.9562C159.089 34.7765 159.278 34.636 159.525 34.5347C159.772 34.4344 160.049 34.3838 160.356 34.3838C160.665 34.3838 160.94 34.4383 161.182 34.5488C161.425 34.6583 161.612 34.8135 161.746 35.0134C161.879 35.2143 161.946 35.4409 161.946 35.6958H161.055C161.055 35.5019 160.992 35.3516 160.867 35.2432C160.742 35.1359 160.567 35.082 160.341 35.082C160.123 35.082 159.954 35.1267 159.832 35.2171C159.712 35.3075 159.652 35.4267 159.652 35.5754C159.652 35.7127 159.723 35.8292 159.864 35.9229C160.006 36.0155 160.214 36.1032 160.49 36.1843C160.997 36.3346 161.367 36.5193 161.599 36.7415C161.83 36.9631 161.946 37.2387 161.946 37.5693C161.946 37.9358 161.805 38.2245 161.521 38.4336C161.238 38.6422 160.857 38.7473 160.378 38.7473C160.044 38.7473 159.742 38.6874 159.468 38.5681C159.195 38.4489 158.986 38.2844 158.842 38.0769C158.698 37.8689 158.627 37.627 158.627 37.3536H159.522C159.522 37.8209 159.807 38.0551 160.378 38.0551C160.59 38.0551 160.756 38.0132 160.875 37.9288C160.992 37.8433 161.052 37.7251 161.052 37.5737ZM167.071 37.8155H165.507L165.21 38.6869H164.262L165.872 34.4432H166.7L168.32 38.6869H167.371L167.071 37.8155ZM165.748 37.1053H166.831L166.287 35.5155L165.748 37.1053ZM172.807 38.6869H171.915L170.18 35.8946V38.6869H169.289V34.4432H170.18L171.919 37.2414V34.4432H172.808V38.6869H172.807ZM174.149 38.6869V34.4432H175.481C175.861 34.4432 176.202 34.527 176.502 34.6948C176.802 34.863 177.037 35.1027 177.205 35.412C177.373 35.7225 177.458 36.0749 177.458 36.4686V36.6647C177.458 37.059 177.374 37.4097 177.209 37.7164C177.043 38.0235 176.811 38.2615 176.509 38.4304C176.207 38.5992 175.868 38.6847 175.489 38.6869H174.149ZM175.042 35.1539V37.9827H175.473C175.821 37.9827 176.088 37.871 176.272 37.6483C176.456 37.4244 176.55 37.1053 176.554 36.6903V36.4664C176.554 36.0356 176.463 35.7083 176.281 35.4867C176.099 35.265 175.832 35.1533 175.481 35.1533H175.042V35.1539ZM181.133 38.6869H180.242V34.4432H181.133V38.6869ZM182.523 38.6869V34.4432H183.855C184.235 34.4432 184.576 34.527 184.876 34.6948C185.176 34.863 185.411 35.1027 185.58 35.412C185.748 35.7225 185.832 36.0749 185.832 36.4686V36.6647C185.832 37.059 185.749 37.4097 185.584 37.7164C185.418 38.0235 185.185 38.2615 184.884 38.4304C184.582 38.5992 184.242 38.6847 183.864 38.6869H182.523ZM183.416 35.1539V37.9827H183.847C184.195 37.9827 184.462 37.871 184.646 37.6483C184.83 37.4244 184.924 37.1053 184.928 36.6903V36.4664C184.928 36.0356 184.837 35.7083 184.654 35.4867C184.472 35.265 184.206 35.1533 183.855 35.1533H183.416V35.1539ZM189.647 36.8428H187.935V37.9827H189.944V38.6869H187.043V34.4432H189.938V35.1533H187.935V36.162H189.646V36.8428H189.647ZM194.55 38.6869H193.659L191.923 35.8946V38.6869H191.031V34.4432H191.923L193.662 37.2414V34.4432H194.55V38.6869ZM199.065 35.1539H197.739V38.6869H196.847V35.1539H195.539V34.4437H199.066V35.1539H199.065ZM201.085 38.6869H200.193V34.4432H201.085V38.6869ZM205.647 35.1539H204.321V38.6869H203.429V35.1539H202.121V34.4437H205.647V35.1539H205.647ZM208.259 36.3548L209.159 34.4432H210.134L208.714 37.1478V38.6869H207.806V37.1478L206.386 34.4432H207.364L208.259 36.3548Z" fill="#062846"/>
<path fill-rule="evenodd" clip-rule="evenodd" d="M92.5664 9.48294H86.6485V25.25H82.6684V9.48294H76.8315V6.31375H92.5664V9.48294ZM112.226 23.8252C111.28 24.9526 109.971 25.5163 108.301 25.5163C106.761 25.5163 105.588 25.0817 104.778 24.2157C103.968 23.3503 103.555 22.0808 103.537 20.4077V11.1882H107.372V20.2835C107.372 21.748 108.051 22.4805 109.415 22.4805C110.714 22.4805 111.606 22.0366 112.095 21.1533V11.1882H115.94V25.2505H112.331L112.226 23.8252ZM101.785 14.6988C101.264 14.6324 100.807 14.5965 100.408 14.5965C98.9549 14.5965 98.0038 15.0757 97.5554 16.0392V25.25H93.7203V11.1876H97.3426L97.4471 12.8564C98.2171 11.5645 99.2855 10.9208 100.644 10.9208C101.069 10.9208 101.468 10.9785 101.839 11.0896L101.785 14.6988Z" fill="#062846"/>
<path fill-rule="evenodd" clip-rule="evenodd" d="M141.488 22.4812C142.194 22.4812 142.769 22.2905 143.213 21.9082C143.657 21.5308 143.883 21.0248 143.901 20.3903H147.496C147.487 21.3445 147.224 22.2192 146.699 23.0138C146.178 23.8084 145.467 24.4206 144.557 24.8601C143.652 25.2996 142.651 25.5169 141.555 25.5169C139.504 25.5169 137.883 24.8781 136.696 23.5993C135.515 22.321 134.921 20.5537 134.921 18.2995V18.0512C134.921 15.8803 135.51 14.1538 136.688 12.8619C137.86 11.5701 139.476 10.922 141.528 10.922C143.321 10.922 144.761 11.4236 145.843 12.4224C146.93 13.4256 147.478 14.7573 147.496 16.426H143.901C143.883 15.6935 143.657 15.0987 143.213 14.6413C142.769 14.1843 142.185 13.9577 141.46 13.9577C140.568 13.9577 139.894 14.2774 139.436 14.9119C138.984 15.5513 138.758 16.5856 138.758 18.019V18.4052C138.758 19.8566 138.979 20.8952 139.432 21.5297C139.885 22.1658 140.568 22.4812 141.488 22.4812Z" fill="#062846"/>
<path fill-rule="evenodd" clip-rule="evenodd" d="M153.44 12.7133C154.454 11.519 155.736 10.9199 157.27 10.9199C160.386 10.9199 161.966 12.691 162.007 16.2376V25.2485H158.175V16.3264C158.175 15.5182 157.999 14.9234 157.641 14.5373C157.288 14.1512 156.699 13.9556 155.88 13.9556C154.757 13.9556 153.942 14.3821 153.439 15.2339V25.2479H149.604V5.27319H153.439V12.7133H153.44Z" fill="#062846"/>
<path d="M184.304 5.27319H180.455V25.2479H184.304V5.27319Z" fill="#062846"/>
<path fill-rule="evenodd" clip-rule="evenodd" d="M192.61 22.637C193.176 22.637 193.697 22.5129 194.177 22.2683C194.652 22.02 195.005 21.6867 195.236 21.2744V18.8552H193.806C191.886 18.8552 190.863 19.5033 190.74 20.8038L190.726 21.0255C190.726 21.4917 190.894 21.8778 191.229 22.1839C191.564 22.4862 192.026 22.637 192.61 22.637ZM195.779 25.2469C195.603 24.9098 195.476 24.492 195.395 23.991C194.466 25.0073 193.257 25.5132 191.772 25.5132C190.368 25.5132 189.201 25.114 188.277 24.315C187.353 23.5161 186.891 22.508 186.891 21.2918C186.891 19.8006 187.457 18.6553 188.585 17.8563C189.712 17.0573 191.342 16.6532 193.47 16.6445H195.236V15.8456C195.236 15.1975 195.064 14.6822 194.724 14.2966C194.385 13.9105 193.846 13.715 193.112 13.715C192.469 13.715 191.962 13.8664 191.596 14.1632C191.229 14.4606 191.043 14.8734 191.043 15.393H187.212C187.212 14.5804 187.466 13.8261 187.977 13.1382C188.493 12.4454 189.218 11.9041 190.155 11.5092C191.092 11.1144 192.143 10.9189 193.311 10.9189C195.082 10.9189 196.486 11.354 197.523 12.2238C198.564 13.0985 199.084 14.319 199.084 15.8989V21.9977C199.094 23.3293 199.284 24.3412 199.655 25.0247V25.2469H195.779Z" fill="#062846"/>
<path fill-rule="evenodd" clip-rule="evenodd" d="M210.097 14.6964C209.576 14.6294 209.119 14.594 208.721 14.594C207.267 14.594 206.316 15.0733 205.868 16.0367V25.2474H202.033V11.1852H205.655L205.759 12.8544C206.529 11.5626 207.598 10.9189 208.956 10.9189C209.382 10.9189 209.78 10.9766 210.152 11.0877L210.097 14.6964Z" fill="#062846"/>
<path fill-rule="evenodd" clip-rule="evenodd" d="M129.098 20.2812C129.098 19.5438 128.832 18.9763 128.302 18.5809C127.772 18.1904 126.816 17.7732 125.435 17.3337C124.054 16.8991 122.963 16.4639 122.157 16.0418C119.965 14.8791 118.869 13.3122 118.869 11.3411C118.869 10.32 119.163 9.40555 119.752 8.60222C120.336 7.7989 121.183 7.17312 122.283 6.72054C123.383 6.27231 124.62 6.04575 125.992 6.04575C127.373 6.04575 128.6 6.28974 129.678 6.78262C130.76 7.27115 131.597 7.96337 132.195 8.85493C132.789 9.75193 133.087 10.7638 133.087 11.9005H129.111C129.111 11.0351 128.831 10.3646 128.273 9.881C127.716 9.40119 126.933 9.16209 125.923 9.16209C124.954 9.16209 124.198 9.36197 123.655 9.76554C123.116 10.1697 122.849 10.7023 122.849 11.3635C122.849 11.9762 123.166 12.4952 123.795 12.913C124.429 13.3258 125.357 13.7163 126.589 14.0801C128.853 14.7505 130.501 15.5762 131.538 16.5657C132.57 17.5553 133.086 18.7851 133.086 20.2589C133.086 21.8966 132.457 23.1841 131.189 24.1165C129.926 25.0483 128.223 25.5145 126.086 25.5145C124.597 25.5145 123.247 25.2482 122.025 24.7156C120.807 24.1824 119.874 23.4504 119.231 22.5229C118.593 21.5954 118.271 20.5165 118.271 19.296H122.265C122.265 21.3819 123.537 22.4254 126.086 22.4254C127.028 22.4254 127.771 22.2391 128.301 21.8617C128.831 21.4843 129.098 20.956 129.098 20.2812Z" fill="#062846"/>
<path fill-rule="evenodd" clip-rule="evenodd" d="M171.09 13.5779C173.703 13.5779 175.821 15.654 175.821 18.2159C175.821 20.7773 173.703 22.854 171.09 22.854C168.477 22.854 166.359 20.7773 166.359 18.2159C166.359 15.6546 168.477 13.5779 171.09 13.5779ZM171.09 25.4785C175.181 25.4785 178.499 22.2266 178.499 18.2159C178.499 14.2053 175.181 10.9533 171.09 10.9533C166.999 10.9533 163.682 14.2053 163.682 18.2159C163.682 22.2266 166.999 25.4785 171.09 25.4785ZM171.09 13.8905C168.651 13.8905 166.673 15.8294 166.673 18.2208C166.673 20.6123 168.651 22.5512 171.09 22.5512C173.53 22.5512 175.508 20.6123 175.508 18.2208C175.508 15.8294 173.53 13.8905 171.09 13.8905ZM175.821 18.2159C175.821 15.6546 173.702 13.5779 171.09 13.5779C168.477 13.5779 166.358 15.654 166.358 18.2159C166.358 20.7773 168.476 22.854 171.09 22.854C173.703 22.8534 175.821 20.7773 175.821 18.2159Z" fill="#FF492C"/>
<path fill-rule="evenodd" clip-rule="evenodd" d="M173.891 22.5684L174.767 21.886L175.82 23.1855L176.693 24.2453C176.861 24.4496 177.167 24.4828 177.377 24.3194L177.397 24.3041C177.502 24.2219 177.623 24.1881 177.756 24.2034C177.89 24.2181 178 24.278 178.083 24.3815L182.353 29.6665C182.519 29.873 182.484 30.1747 182.274 30.3381L180.599 31.6425C180.494 31.7247 180.374 31.7585 180.24 31.7432C180.106 31.728 179.996 31.6686 179.913 31.5651L175.643 26.2806C175.476 26.0742 175.512 25.7725 175.722 25.6085L175.736 25.5971C175.842 25.5149 175.903 25.407 175.918 25.2752C175.933 25.144 175.897 25.0252 175.812 24.9223L174.944 23.8679L173.891 22.5684ZM178.625 25.8209L178.36 26.0257L180.605 28.8044L180.87 28.5996L178.625 25.8209Z" fill="#FF492C"/>
<path fill-rule="evenodd" clip-rule="evenodd" d="M167.551 16.5219C167.796 18.9379 169.296 21.0587 171.518 22.131C170.163 22.0477 168.922 21.3615 168.149 20.2679C167.376 19.1743 167.155 17.7942 167.551 16.5219Z" fill="#FF492C"/>
<path fill-rule="evenodd" clip-rule="evenodd" d="M30.4915 0L45.7373 7.02352L60.983 14.047L60.9825 14.0476L60.9836 14.047C64.5167 19.3452 62.6874 23.2681 61.342 27.2553C61.776 27.672 62.0455 28.2525 62.0455 28.8957C62.0455 29.9267 61.352 30.7992 60.3973 31.089C60.1006 33.7794 60.7718 36.685 63.9821 40.1924C62.0827 41.6471 60.4756 42.1797 59.1603 41.7903C55.3915 39.9353 56.4179 35.3447 57.9011 30.363C57.5638 29.9648 57.3604 29.4534 57.3604 28.8952C57.3604 28.0026 57.88 27.2292 58.6385 26.849C58.7535 26.7913 58.8736 26.7434 58.998 26.7047C60.2989 22.1859 61.1203 17.8104 58.3229 15.2724L45.7378 21.07L30.4921 28.0935L18.081 22.3766L16.395 21.5999L15.2458 21.0705L0 14.047L15.2458 7.02352L30.4915 0ZM28.6299 14.053C28.6299 14.0835 28.631 14.114 28.6327 14.144L28.6299 14.053Z" fill="#FF492C"/>
<path fill-rule="evenodd" clip-rule="evenodd" d="M15.2437 29.021L16.3929 29.5498L18.0789 30.3264L30.4895 36.0439L45.7358 29.021L52.9472 25.6982L54.0308 25.1993V18.7956L45.7358 22.6172L30.4895 29.6402L18.0789 23.9233L16.3929 23.1461L15.2437 22.6172L6.94873 18.7956V25.1993L8.03236 25.6982L15.2437 29.021Z" fill="#062846"/>
<path fill-rule="evenodd" clip-rule="evenodd" d="M30.49 44L54.0313 33.1554V26.7516L30.49 37.5968C22.6429 33.9816 14.7958 30.3669 6.94873 26.7516V33.1554C14.7964 36.77 22.6429 40.3853 30.49 44Z" fill="#062846"/>
</svg>
